
<svg id="svg" version="1.1" xmlns="http://www.w3.org/2000/svg" xmlns:xlink="http://www.w3.org/1999/xlink" width="400" height="391.1991199119912" viewBox="0, 0, 400,391.1991199119912"><g id="svgg"><path id="path0" d="M197.554 174.406 C 196.316 175.171,195.303 175.963,195.303 176.166 C 195.303 176.370,194.907 176.695,194.423 176.888 C 192.206 177.775,178.462 190.749,178.502 191.918 C 178.520 192.428,179.329 193.436,180.557 194.478 C 185.555 198.717,187.326 200.306,188.779 201.859 C 189.635 202.774,190.481 203.523,190.660 203.523 C 190.981 203.523,198.323 210.798,200.587 213.359 C 201.233 214.090,202.711 215.742,203.873 217.031 C 205.034 218.319,206.536 219.990,207.212 220.744 C 207.887 221.497,209.420 223.346,210.617 224.853 C 211.814 226.360,213.086 227.835,213.442 228.130 C 213.798 228.426,214.090 228.883,214.090 229.146 C 214.090 229.410,214.706 230.260,215.460 231.036 C 216.213 231.812,216.830 232.546,216.830 232.668 C 216.830 232.789,217.688 234.075,218.738 235.525 C 219.787 236.974,221.103 239.069,221.661 240.179 C 222.220 241.289,222.835 242.257,223.028 242.331 C 223.221 242.405,224.034 243.962,224.835 245.790 C 225.635 247.619,226.410 249.204,226.555 249.313 C 226.873 249.550,227.345 250.773,228.822 255.186 C 229.434 257.016,230.051 258.601,230.191 258.708 C 230.645 259.056,232.427 267.783,232.908 272.016 C 233.807 279.932,232.824 292.683,230.781 299.609 C 229.672 303.364,226.926 310.507,226.381 311.052 C 226.079 311.355,225.832 311.773,225.832 311.982 C 225.832 312.512,223.450 317.569,223.088 317.808 C 222.925 317.916,222.262 318.973,221.614 320.157 C 220.140 322.853,216.367 328.465,215.238 329.642 C 214.770 330.129,214.100 330.969,213.749 331.507 C 212.969 332.703,212.204 333.545,206.363 339.624 C 203.832 342.259,201.563 344.416,201.320 344.419 C 201.077 344.421,200.666 344.679,200.405 344.993 C 200.029 345.447,199.805 345.467,199.316 345.091 C 197.621 343.789,189.041 335.165,189.041 334.763 C 189.041 334.508,188.510 333.922,187.861 333.460 C 187.212 332.997,186.437 332.149,186.139 331.574 C 185.841 330.999,185.183 330.073,184.677 329.517 C 183.495 328.216,178.474 320.815,178.474 320.372 C 178.474 320.186,178.022 319.442,177.469 318.718 C 176.917 317.994,175.845 316.041,175.087 314.378 C 174.330 312.715,173.571 311.266,173.402 311.157 C 173.233 311.048,172.412 308.933,171.577 306.458 C 170.742 303.982,169.945 301.869,169.806 301.761 C 169.667 301.654,169.104 299.540,168.556 297.065 C 165.389 282.765,166.253 268.183,171.038 255.186 C 171.711 253.356,172.424 251.343,172.621 250.712 C 172.818 250.082,173.135 249.465,173.326 249.343 C 173.996 248.910,174.260 247.358,173.663 247.358 C 173.027 247.358,167.030 250.057,166.732 250.478 C 166.624 250.630,166.184 250.857,165.753 250.983 C 163.962 251.508,158.346 253.662,157.956 253.974 C 157.724 254.160,155.245 254.972,152.446 255.778 C 149.648 256.584,147.182 257.354,146.967 257.487 C 146.751 257.621,145.783 257.907,144.814 258.123 L 143.053 258.517 142.593 261.842 C 142.340 263.670,142.120 265.915,142.104 266.830 C 142.088 267.745,141.936 268.493,141.766 268.493 C 141.366 268.493,141.096 273.148,141.096 280.039 C 141.096 286.734,141.364 291.977,141.707 291.977 C 141.847 291.977,142.080 293.398,142.225 295.136 C 142.625 299.930,143.903 307.068,144.988 310.568 C 148.102 320.607,151.581 330.301,152.221 330.715 C 152.394 330.828,153.191 332.416,153.992 334.244 C 154.794 336.073,155.572 337.658,155.723 337.767 C 155.874 337.876,156.680 339.286,157.515 340.900 C 158.350 342.515,159.185 343.896,159.370 343.970 C 159.556 344.043,160.056 344.786,160.481 345.619 C 161.405 347.431,165.287 353.220,166.502 354.599 C 166.976 355.137,167.840 356.326,168.423 357.241 C 169.006 358.156,169.652 358.904,169.859 358.904 C 170.065 358.904,170.490 359.388,170.803 359.980 C 171.117 360.572,171.870 361.596,172.477 362.254 C 173.084 362.913,174.173 364.146,174.896 364.994 C 178.757 369.523,190.049 380.431,190.877 380.431 C 191.055 380.431,191.396 380.742,191.634 381.124 C 191.872 381.505,192.829 382.341,193.760 382.983 C 194.692 383.624,195.977 384.624,196.617 385.204 C 199.127 387.482,200.958 387.411,203.673 384.932 C 204.144 384.501,205.037 383.817,205.656 383.413 C 206.276 383.008,207.326 382.187,207.990 381.588 C 208.654 380.989,210.342 379.493,211.742 378.262 C 217.548 373.155,227.206 363.140,228.898 360.470 C 229.239 359.932,229.945 359.051,230.467 358.513 C 230.988 357.975,231.861 356.830,232.406 355.969 C 232.951 355.108,233.639 354.224,233.936 354.005 C 234.232 353.786,234.688 353.220,234.948 352.747 C 235.208 352.273,236.301 350.570,237.378 348.960 C 238.454 347.351,239.721 345.452,240.193 344.740 C 240.665 344.027,241.702 342.162,242.498 340.596 C 243.294 339.029,244.110 337.646,244.310 337.522 C 244.772 337.237,247.358 331.593,247.358 330.871 C 247.358 330.575,247.519 330.333,247.715 330.333 C 247.912 330.333,248.543 329.056,249.118 327.495 C 249.693 325.934,250.359 324.129,250.598 323.483 C 250.836 322.838,251.143 322.221,251.280 322.114 C 251.542 321.907,253.276 316.473,254.028 313.503 C 254.273 312.534,254.794 310.773,255.187 309.589 C 256.061 306.950,257.384 299.241,257.757 294.618 C 257.909 292.735,258.152 291.194,258.298 291.194 C 259.061 291.194,259.065 270.428,258.302 268.885 C 258.143 268.562,257.735 265.920,257.397 263.014 C 256.655 256.653,255.396 250.199,254.599 248.671 C 254.279 248.056,254.015 247.315,254.014 247.023 C 254.010 246.115,252.051 239.783,251.418 238.633 C 251.087 238.031,250.671 237.063,250.492 236.480 C 249.764 234.097,248.140 229.985,247.844 229.775 C 247.670 229.651,246.861 228.056,246.047 226.230 C 245.232 224.404,244.446 222.819,244.299 222.708 C 244.152 222.596,243.591 221.627,243.053 220.554 C 242.515 219.481,241.502 217.768,240.802 216.748 C 240.103 215.727,239.530 214.730,239.530 214.532 C 239.530 214.334,238.558 212.817,237.370 211.161 C 236.181 209.504,234.944 207.637,234.620 207.010 C 234.296 206.383,233.876 205.871,233.687 205.871 C 233.497 205.871,232.883 205.086,232.321 204.128 C 231.759 203.169,230.994 202.156,230.620 201.877 C 230.247 201.598,229.492 200.717,228.944 199.920 C 225.447 194.836,209.269 178.919,205.642 176.993 C 205.122 176.717,204.697 176.334,204.697 176.141 C 204.697 175.841,200.358 172.975,199.949 173.005 C 199.869 173.010,198.792 173.641,197.554 174.406 " stroke="none" fill="#bcbcc3" fill-rule="evenodd"></path><path id="path1" d="M280.039 134.874 C 272.354 135.343,261.705 136.733,260.861 137.379 C 260.646 137.544,259.853 137.801,259.100 137.950 C 255.694 138.625,248.334 140.586,248.150 140.867 C 248.037 141.038,246.113 141.772,243.873 142.498 C 241.633 143.224,239.607 144.010,239.372 144.244 C 239.136 144.479,238.415 144.868,237.769 145.109 C 234.704 146.253,231.485 147.690,231.283 148.004 C 231.160 148.196,229.753 148.979,228.157 149.744 C 226.561 150.509,225.164 151.274,225.054 151.444 C 224.944 151.615,224.111 152.130,223.204 152.590 C 221.153 153.630,215.339 157.446,214.286 158.444 C 213.855 158.852,212.975 159.463,212.329 159.802 C 211.683 160.141,210.714 160.826,210.176 161.325 C 209.638 161.823,208.537 162.724,207.730 163.327 C 205.954 164.654,206.387 167.123,208.397 167.123 C 209.240 167.123,218.386 174.978,225.144 181.507 C 226.983 183.283,228.680 184.736,228.916 184.736 C 229.314 184.736,232.548 182.092,234.834 179.899 C 235.372 179.382,236.517 178.521,237.378 177.985 C 238.239 177.448,239.279 176.634,239.689 176.176 C 240.099 175.718,240.587 175.342,240.774 175.342 C 241.167 175.342,244.115 173.466,245.078 172.603 C 245.690 172.054,254.668 167.444,258.798 165.558 C 259.815 165.094,262.422 164.203,264.589 163.579 C 266.757 162.955,269.276 162.192,270.187 161.883 C 277.203 159.501,297.990 159.701,304.110 162.210 C 304.863 162.519,307.153 163.247,309.198 163.828 C 312.590 164.792,316.216 166.279,320.352 168.403 C 325.031 170.806,327.086 171.953,327.789 172.555 C 328.219 172.924,329.043 173.461,329.620 173.748 C 330.197 174.036,331.910 175.216,333.427 176.372 C 334.944 177.528,336.352 178.474,336.557 178.474 C 336.762 178.474,337.250 178.870,337.643 179.354 C 338.035 179.839,339.061 180.753,339.922 181.387 C 342.279 183.123,351.859 192.835,351.859 193.490 C 351.859 194.108,344.342 201.829,340.947 204.697 C 339.800 205.665,338.338 206.942,337.698 207.534 C 337.058 208.126,336.461 208.611,336.371 208.611 C 336.281 208.611,334.754 209.689,332.977 211.008 C 331.200 212.326,329.481 213.497,329.159 213.610 C 328.836 213.722,327.957 214.270,327.206 214.826 C 326.455 215.383,324.782 216.338,323.488 216.950 C 322.194 217.561,320.871 218.294,320.548 218.578 C 320.225 218.861,318.728 219.559,317.221 220.127 C 315.714 220.696,313.777 221.496,312.916 221.906 C 310.775 222.925,308.492 223.635,304.110 224.646 C 302.065 225.118,300.039 225.658,299.609 225.846 C 295.683 227.563,279.152 227.323,272.016 225.446 C 263.121 223.107,261.202 222.548,260.705 222.155 C 260.117 221.690,255.951 220.034,254.501 219.688 C 253.416 219.430,253.318 220.262,254.305 221.355 C 254.682 221.772,255.186 222.642,255.425 223.288 C 256.430 225.998,258.128 229.955,258.365 230.137 C 258.505 230.245,259.280 232.270,260.085 234.638 C 260.891 237.006,261.679 239.031,261.836 239.139 C 261.993 239.247,262.719 241.755,263.448 244.714 C 264.206 247.788,264.971 250.095,265.232 250.096 C 265.483 250.097,265.747 250.264,265.819 250.466 C 266.567 252.577,306.200 252.638,307.624 250.530 C 307.736 250.364,309.149 250.016,310.763 249.755 C 314.487 249.155,321.762 247.415,322.295 246.998 C 322.518 246.823,324.758 246.033,327.273 245.241 C 329.787 244.449,331.901 243.677,331.969 243.525 C 332.038 243.373,333.151 242.838,334.442 242.337 C 337.158 241.282,345.525 237.183,346.154 236.599 C 346.388 236.381,347.883 235.516,349.475 234.676 C 351.068 233.836,352.652 232.899,352.995 232.594 C 353.339 232.289,354.677 231.349,355.969 230.504 C 361.257 227.046,362.656 226.033,363.336 225.171 C 363.728 224.673,364.256 224.265,364.510 224.264 C 364.763 224.263,365.799 223.514,366.811 222.601 C 367.823 221.687,369.573 220.147,370.700 219.178 C 375.958 214.658,387.443 202.688,388.564 200.560 C 388.840 200.037,389.212 199.609,389.390 199.609 C 389.567 199.609,390.381 198.596,391.197 197.358 C 392.013 196.120,392.918 194.967,393.209 194.795 C 394.086 194.276,393.787 192.829,392.553 191.618 C 391.913 190.990,391.389 190.268,391.389 190.014 C 391.389 189.760,390.816 188.953,390.115 188.221 C 389.414 187.488,388.552 186.448,388.200 185.910 C 385.972 182.504,372.755 169.045,369.123 166.484 C 368.776 166.240,367.701 165.315,366.732 164.429 C 365.763 163.543,364.830 162.818,364.658 162.818 C 364.486 162.818,363.710 162.202,362.934 161.448 C 362.158 160.695,361.316 160.078,361.062 160.078 C 360.808 160.078,360.086 159.555,359.459 158.915 C 358.831 158.275,358.190 157.747,358.035 157.741 C 357.735 157.729,354.146 155.351,353.816 154.945 C 353.708 154.813,352.564 154.125,351.272 153.416 C 349.980 152.708,348.748 151.927,348.532 151.681 C 348.317 151.435,346.732 150.561,345.010 149.739 C 343.288 148.917,341.788 148.101,341.677 147.927 C 341.567 147.753,339.900 146.975,337.974 146.199 C 336.048 145.422,334.377 144.645,334.261 144.472 C 334.146 144.300,332.025 143.469,329.550 142.627 C 327.074 141.785,324.957 140.974,324.844 140.826 C 324.655 140.575,317.014 138.569,313.894 137.950 C 313.141 137.801,312.348 137.543,312.133 137.377 C 310.357 136.008,288.897 134.335,280.039 134.874 " stroke="none" fill="#040404" fill-rule="evenodd"></path><path id="path2" d="M106.849 134.874 C 98.276 135.464,88.722 136.725,87.867 137.379 C 87.652 137.544,86.859 137.796,86.106 137.939 C 82.906 138.546,76.441 140.251,75.538 140.725 C 75.000 141.007,72.628 141.893,70.267 142.692 C 67.906 143.492,65.748 144.373,65.470 144.650 C 65.193 144.927,64.571 145.262,64.088 145.394 C 62.966 145.700,58.575 147.673,58.317 147.987 C 58.209 148.118,56.760 148.877,55.097 149.674 C 53.433 150.471,51.968 151.292,51.839 151.500 C 51.711 151.707,50.583 152.393,49.332 153.025 C 48.081 153.656,46.812 154.401,46.513 154.680 C 45.567 155.561,42.263 157.730,41.867 157.730 C 41.658 157.730,41.487 157.886,41.487 158.078 C 41.487 158.269,40.342 159.143,38.943 160.020 C 37.544 160.898,36.399 161.786,36.399 161.995 C 36.399 162.203,36.074 162.477,35.676 162.603 C 35.278 162.730,34.135 163.578,33.136 164.489 C 32.136 165.400,30.832 166.534,30.238 167.009 C 25.423 170.861,12.047 184.623,11.399 186.392 C 11.318 186.613,10.569 187.497,9.735 188.356 C 8.901 189.215,8.219 190.119,8.219 190.364 C 8.219 190.610,7.779 191.285,7.241 191.866 C 6.060 193.139,6.020 193.730,7.036 194.901 C 7.461 195.392,8.360 196.652,9.034 197.701 C 9.707 198.750,10.410 199.609,10.596 199.609 C 10.782 199.609,11.160 200.041,11.437 200.569 C 12.467 202.536,24.719 215.305,29.550 219.447 C 30.411 220.185,31.996 221.571,33.072 222.526 C 34.149 223.480,35.155 224.263,35.309 224.264 C 35.463 224.265,36.168 224.768,36.875 225.382 C 38.369 226.678,42.195 229.391,45.091 231.208 C 46.201 231.904,47.209 232.618,47.332 232.795 C 47.454 232.971,48.258 233.480,49.119 233.926 C 52.210 235.529,53.389 236.213,54.057 236.791 C 54.430 237.114,55.938 237.895,57.407 238.527 C 58.876 239.160,60.166 239.790,60.274 239.928 C 60.545 240.276,67.105 243.053,67.655 243.053 C 67.901 243.053,68.102 243.210,68.102 243.403 C 68.102 243.749,76.293 246.575,77.298 246.575 C 77.586 246.575,77.880 246.730,77.952 246.919 C 78.102 247.315,85.136 249.090,89.324 249.789 C 90.890 250.051,92.263 250.391,92.374 250.546 C 92.684 250.976,102.421 251.988,109.002 252.274 C 117.726 252.654,129.291 251.740,136.399 250.109 C 137.476 249.862,140.376 249.220,142.846 248.682 C 145.315 248.144,147.869 247.465,148.521 247.171 C 149.173 246.878,151.732 245.990,154.207 245.197 C 156.683 244.404,158.796 243.623,158.904 243.462 C 159.012 243.301,160.068 242.810,161.252 242.370 C 163.423 241.565,173.022 236.803,173.386 236.352 C 173.493 236.218,174.638 235.575,175.930 234.923 C 177.221 234.271,178.806 233.279,179.452 232.720 C 180.098 232.161,180.762 231.703,180.928 231.703 C 181.334 231.702,184.353 229.712,185.174 228.905 C 185.535 228.550,186.641 227.785,187.631 227.204 C 188.622 226.624,189.432 226.004,189.432 225.826 C 189.432 225.649,190.049 225.123,190.802 224.658 C 192.699 223.485,192.708 223.504,187.698 218.428 C 185.236 215.934,182.668 213.191,181.990 212.332 C 181.311 211.472,180.621 210.680,180.456 210.570 C 179.971 210.250,175.342 204.624,175.342 204.355 C 175.341 203.391,172.522 201.038,171.904 201.484 C 171.535 201.750,170.755 202.285,170.172 202.673 C 169.588 203.061,168.766 203.816,168.345 204.351 C 167.924 204.887,166.772 205.835,165.786 206.459 C 164.799 207.082,163.992 207.724,163.992 207.885 C 163.992 208.046,163.023 208.820,161.840 209.606 C 160.656 210.392,159.687 211.194,159.687 211.388 C 159.687 211.583,159.514 211.742,159.303 211.742 C 158.910 211.742,154.560 214.406,154.207 214.863 C 153.768 215.432,144.831 219.917,142.466 220.755 C 141.067 221.251,139.658 221.861,139.335 222.112 C 138.646 222.646,132.441 224.478,130.039 224.856 C 129.124 225.000,128.376 225.241,128.376 225.391 C 128.376 225.541,128.068 225.691,127.691 225.723 C 127.314 225.755,125.068 226.071,122.701 226.425 C 117.891 227.143,105.563 227.011,101.957 226.204 C 100.881 225.963,99.736 225.736,99.413 225.701 C 99.090 225.665,98.738 225.548,98.630 225.440 C 98.523 225.333,96.497 224.754,94.129 224.154 C 91.761 223.554,88.943 222.639,87.867 222.121 C 86.791 221.603,84.589 220.620,82.975 219.936 C 81.360 219.252,79.844 218.537,79.605 218.346 C 79.367 218.156,77.958 217.357,76.474 216.570 C 74.991 215.784,73.601 214.923,73.386 214.658 C 73.170 214.392,72.202 213.696,71.233 213.112 C 70.264 212.527,69.295 211.847,69.080 211.601 C 68.865 211.356,67.998 210.678,67.154 210.097 C 64.970 208.592,58.918 202.997,56.233 200.000 C 50.255 193.329,50.489 193.700,51.448 192.435 C 53.879 189.227,59.906 183.027,63.836 179.689 C 67.733 176.380,68.143 176.057,70.206 174.662 C 71.256 173.952,72.634 172.935,73.269 172.400 C 73.904 171.866,74.601 171.429,74.817 171.429 C 75.033 171.429,76.120 170.833,77.233 170.106 C 80.198 168.168,88.175 164.563,91.781 163.532 C 93.503 163.039,95.020 162.486,95.151 162.302 C 95.283 162.119,95.547 161.993,95.738 162.024 C 95.930 162.054,96.793 161.901,97.657 161.683 C 105.786 159.636,121.315 159.660,129.545 161.733 C 130.516 161.977,131.380 162.130,131.463 162.073 C 131.547 162.015,131.723 162.121,131.854 162.307 C 131.986 162.493,133.591 163.062,135.421 163.572 C 138.810 164.516,140.109 165.041,145.988 167.844 C 149.592 169.562,155.066 172.534,155.382 172.943 C 155.696 173.351,158.858 175.342,159.191 175.342 C 159.357 175.342,160.009 175.888,160.638 176.555 C 161.267 177.222,162.089 177.882,162.463 178.023 C 163.155 178.282,164.871 179.612,167.453 181.889 C 169.298 183.517,170.089 183.491,171.581 181.752 C 172.251 180.972,173.063 180.096,173.386 179.807 C 174.345 178.947,179.678 174.038,181.996 171.881 C 183.180 170.780,184.350 169.875,184.596 169.871 C 184.842 169.866,185.130 169.637,185.236 169.360 C 185.343 169.083,186.198 168.338,187.137 167.703 C 188.077 167.068,189.198 166.194,189.629 165.760 C 190.060 165.326,190.852 164.681,191.390 164.326 L 192.368 163.682 190.665 162.143 C 189.728 161.297,188.319 160.277,187.534 159.876 C 186.748 159.475,184.168 157.883,181.800 156.340 C 171.220 149.441,160.023 143.958,150.489 141.007 C 148.767 140.473,146.654 139.720,145.793 139.332 C 144.932 138.943,143.082 138.405,141.683 138.135 C 140.284 137.864,139.051 137.525,138.943 137.380 C 138.711 137.068,131.972 135.969,127.006 135.434 C 123.042 135.006,110.135 134.648,106.849 134.874 " stroke="none" fill="#ab1c44" fill-rule="evenodd"></path><path id="path3" d="M198.651 0.512 C 197.651 1.125,197.137 1.526,195.552 2.935 C 194.826 3.581,193.572 4.550,192.766 5.088 C 191.022 6.252,188.475 8.502,186.020 11.047 C 185.039 12.064,184.105 12.814,183.944 12.714 C 183.783 12.615,183.554 12.901,183.437 13.351 C 183.319 13.801,183.035 14.053,182.805 13.911 C 182.575 13.769,182.387 13.830,182.387 14.047 C 182.387 14.638,180.587 16.464,180.294 16.171 C 180.154 16.031,180.039 16.210,180.039 16.569 C 180.039 16.928,179.765 17.221,179.429 17.221 C 179.093 17.221,178.913 17.373,179.027 17.559 C 179.142 17.744,178.404 18.689,177.387 19.658 C 175.429 21.524,173.351 23.875,173.660 23.875 C 173.761 23.875,173.255 24.447,172.535 25.147 C 171.815 25.846,170.632 27.245,169.907 28.255 C 169.182 29.265,168.347 30.184,168.052 30.298 C 167.756 30.411,167.515 30.759,167.515 31.070 C 167.515 31.382,166.817 32.385,165.965 33.299 C 165.113 34.213,164.507 35.108,164.618 35.288 C 164.730 35.469,164.656 35.616,164.454 35.616 C 164.252 35.616,163.869 36.143,163.603 36.786 C 163.336 37.429,162.936 37.842,162.712 37.704 C 162.467 37.552,162.424 37.644,162.603 37.934 C 162.776 38.214,162.597 38.710,162.175 39.116 C 161.317 39.943,160.277 41.403,160.266 41.797 C 160.254 42.261,158.754 44.618,158.471 44.618 C 158.325 44.618,157.930 45.308,157.593 46.151 C 157.256 46.993,156.794 47.798,156.566 47.939 C 156.338 48.080,156.253 48.359,156.377 48.559 C 156.501 48.760,156.405 48.924,156.164 48.924 C 155.924 48.924,155.836 49.101,155.970 49.318 C 156.104 49.535,155.929 49.822,155.580 49.955 C 155.231 50.089,155.038 50.440,155.151 50.735 C 155.264 51.031,155.176 51.272,154.955 51.272 C 154.734 51.272,154.650 51.430,154.769 51.622 C 154.888 51.815,154.697 52.083,154.345 52.219 C 153.992 52.354,153.818 52.578,153.957 52.718 C 154.096 52.857,153.933 53.394,153.594 53.912 C 153.255 54.429,152.904 55.236,152.814 55.704 C 152.724 56.173,152.375 56.758,152.038 57.006 C 151.701 57.254,151.397 57.826,151.363 58.278 C 151.329 58.730,151.192 59.100,151.058 59.100 C 150.925 59.100,150.797 59.320,150.774 59.589 C 150.687 60.626,149.362 64.028,148.766 64.744 C 148.362 65.231,148.328 65.387,148.671 65.185 C 149.047 64.965,149.018 65.153,148.572 65.834 C 148.226 66.362,148.060 66.912,148.205 67.057 C 148.349 67.201,148.251 67.319,147.987 67.319 C 147.723 67.319,147.609 67.483,147.733 67.683 C 147.857 67.884,147.793 68.149,147.592 68.274 C 147.271 68.472,146.747 70.375,146.131 73.581 C 146.027 74.119,145.711 74.916,145.428 75.351 C 145.144 75.787,144.939 76.580,144.973 77.113 C 145.006 77.646,144.889 78.185,144.714 78.310 C 144.538 78.435,144.305 79.051,144.195 79.679 C 144.086 80.308,143.914 81.262,143.815 81.800 C 142.865 86.933,142.138 92.368,142.097 94.641 C 142.084 95.401,141.912 95.836,141.683 95.695 C 141.468 95.562,141.292 95.738,141.292 96.086 C 141.292 96.434,141.438 96.629,141.618 96.518 C 141.797 96.407,141.944 96.565,141.944 96.869 C 141.944 97.173,141.839 97.357,141.710 97.277 C 141.582 97.198,141.481 98.190,141.487 99.481 C 141.493 100.773,141.364 101.912,141.199 102.014 C 141.035 102.116,140.936 104.346,140.980 106.970 L 141.059 111.742 141.292 106.849 L 141.524 101.957 141.604 106.728 C 141.647 109.353,141.529 111.595,141.341 111.711 C 141.153 111.827,141.239 112.938,141.531 114.180 C 142.127 116.712,142.187 117.612,141.683 116.438 C 141.399 115.779,141.342 115.852,141.319 116.904 C 141.304 117.591,141.468 118.262,141.683 118.395 C 141.898 118.528,142.075 119.287,142.076 120.082 C 142.077 120.876,142.347 123.112,142.677 125.049 C 143.007 126.986,143.361 129.188,143.463 129.941 C 143.716 131.796,144.457 135.481,144.722 136.204 C 144.841 136.526,144.898 137.028,144.850 137.319 C 144.801 137.610,144.938 137.739,145.153 137.606 C 145.368 137.473,145.600 137.838,145.668 138.416 C 145.783 139.390,146.151 139.587,150.685 141.099 C 163.076 145.231,172.040 149.785,185.238 158.657 L 186.327 159.389 185.830 158.266 C 185.312 157.098,184.344 155.887,184.344 156.407 C 184.344 156.571,184.096 156.365,183.792 155.950 C 183.488 155.534,183.323 155.061,183.424 154.897 C 183.525 154.733,183.421 154.599,183.193 154.599 C 182.965 154.599,182.779 154.368,182.779 154.086 C 182.779 153.803,182.427 153.194,181.996 152.732 C 181.566 152.270,181.213 151.739,181.213 151.552 C 181.213 151.366,180.773 150.799,180.235 150.294 C 179.697 149.788,179.256 149.141,179.256 148.855 C 179.256 148.570,179.094 148.337,178.896 148.337 C 178.698 148.337,178.417 147.796,178.272 147.136 C 178.127 146.476,177.762 145.841,177.460 145.725 C 177.159 145.609,176.999 145.376,177.104 145.205 C 177.209 145.035,177.032 144.795,176.710 144.672 C 176.388 144.548,176.125 144.089,176.125 143.652 C 176.125 143.215,175.949 142.857,175.734 142.857 C 175.519 142.857,175.342 142.602,175.342 142.290 C 175.342 141.977,175.034 141.542,174.658 141.323 C 174.235 141.077,174.169 140.919,174.485 140.912 C 174.796 140.905,174.877 140.708,174.692 140.411 C 174.524 140.142,174.351 139.693,174.309 139.413 C 174.267 139.133,174.015 138.643,173.751 138.325 C 173.066 137.499,171.086 133.448,171.490 133.697 C 171.954 133.984,170.953 131.772,170.458 131.415 C 170.199 131.228,170.196 131.123,170.450 131.115 C 170.665 131.109,170.577 130.933,170.254 130.724 C 169.777 130.415,169.770 130.344,170.217 130.339 C 170.631 130.334,170.582 130.122,170.022 129.483 C 169.556 128.951,169.496 128.759,169.863 128.971 C 170.358 129.256,170.371 129.211,169.944 128.684 C 169.666 128.341,169.173 126.942,168.849 125.576 C 168.525 124.210,168.091 122.387,167.884 121.526 C 167.494 119.900,167.186 117.942,166.899 115.264 C 166.620 112.648,166.508 99.747,166.763 99.589 C 166.895 99.508,166.979 98.567,166.950 97.498 C 166.921 96.430,167.020 95.631,167.169 95.723 C 167.319 95.816,167.563 94.966,167.713 93.836 C 167.945 92.073,168.539 89.278,169.314 86.301 C 169.426 85.871,169.559 85.316,169.610 85.069 C 169.660 84.821,169.917 84.359,170.180 84.042 C 170.444 83.725,170.540 83.135,170.394 82.731 C 170.249 82.327,170.276 82.129,170.456 82.292 C 170.635 82.455,171.195 81.320,171.700 79.770 C 172.205 78.220,172.907 76.634,173.259 76.245 C 173.610 75.856,173.739 75.535,173.544 75.532 C 173.349 75.529,173.427 75.376,173.717 75.192 C 174.007 75.008,174.272 74.394,174.304 73.828 C 174.337 73.262,174.468 72.799,174.595 72.799 C 174.884 72.798,175.895 70.750,175.802 70.352 C 175.765 70.191,175.920 70.059,176.148 70.059 C 176.376 70.059,176.465 69.901,176.346 69.708 C 176.227 69.516,176.404 69.253,176.739 69.124 C 177.075 68.995,177.239 68.711,177.104 68.493 C 176.969 68.275,177.134 67.991,177.470 67.861 C 177.807 67.732,178.082 67.415,178.082 67.157 C 178.082 66.899,178.517 66.099,179.048 65.380 C 179.579 64.660,179.932 63.940,179.834 63.781 C 179.735 63.621,180.109 63.193,180.664 62.830 C 181.219 62.466,181.572 62.068,181.449 61.945 C 181.326 61.822,181.477 61.528,181.785 61.291 C 182.093 61.055,182.398 60.612,182.464 60.307 C 182.594 59.703,183.219 58.867,184.736 57.265 C 185.274 56.697,185.450 56.383,185.127 56.568 C 184.520 56.917,185.815 55.349,188.359 52.658 C 189.165 51.806,189.824 50.871,189.824 50.580 C 189.824 50.290,189.956 50.132,190.117 50.229 C 190.500 50.461,191.415 49.471,191.105 49.161 C 190.974 49.031,191.130 48.924,191.452 48.924 C 192.171 48.924,193.845 47.204,193.480 46.840 C 193.335 46.694,193.509 46.575,193.868 46.575 C 194.227 46.575,194.477 46.417,194.423 46.223 C 194.369 46.029,194.457 45.853,194.617 45.831 C 194.778 45.809,195.787 44.954,196.860 43.932 C 199.997 40.943,199.938 40.981,200.550 41.564 C 201.793 42.746,202.777 43.444,203.201 43.444 C 203.450 43.444,203.535 43.562,203.391 43.706 C 203.037 44.061,204.290 45.401,204.976 45.401 C 205.278 45.401,205.417 45.577,205.284 45.793 C 205.151 46.008,205.316 46.184,205.652 46.184 C 205.988 46.184,206.226 46.316,206.183 46.477 C 206.059 46.934,208.333 49.315,208.893 49.315 C 209.168 49.315,209.396 49.535,209.399 49.804 C 209.402 50.073,210.327 51.299,211.454 52.529 C 214.092 55.406,214.481 55.879,214.481 56.203 C 214.481 56.349,214.790 56.722,215.166 57.031 C 215.605 57.390,215.640 57.497,215.264 57.328 C 214.941 57.183,215.206 57.566,215.852 58.180 C 216.498 58.793,217.291 59.808,217.613 60.434 C 217.936 61.060,218.706 62.115,219.324 62.777 C 219.943 63.440,220.481 64.161,220.521 64.379 C 220.665 65.167,222.415 68.317,223.165 69.136 C 223.586 69.597,223.967 70.213,224.010 70.506 C 224.053 70.798,224.569 71.896,225.156 72.946 C 225.743 73.995,226.223 75.025,226.223 75.233 C 226.223 75.442,226.587 76.125,227.033 76.750 C 227.478 77.375,227.740 77.886,227.614 77.886 C 227.489 77.886,227.669 78.547,228.015 79.354 C 228.361 80.161,228.679 81.024,228.722 81.272 C 228.766 81.519,229.017 81.981,229.280 82.298 C 229.544 82.616,229.638 83.191,229.490 83.576 C 229.295 84.085,229.359 84.192,229.721 83.968 C 230.096 83.737,230.151 83.880,229.941 84.540 C 229.767 85.091,229.808 85.330,230.052 85.180 C 230.392 84.970,230.926 86.593,231.131 88.454 C 231.167 88.777,231.323 89.442,231.479 89.933 C 231.635 90.423,231.831 91.304,231.914 91.890 C 231.998 92.476,232.174 93.395,232.306 93.933 C 232.562 94.982,232.649 95.638,233.134 100.196 C 233.640 104.951,233.375 117.915,232.779 117.550 C 232.617 117.452,232.472 117.777,232.456 118.274 C 232.382 120.569,230.533 128.502,229.989 128.859 C 229.747 129.017,229.704 129.149,229.891 129.153 C 230.079 129.156,230.046 129.384,229.817 129.660 C 229.588 129.936,229.317 130.625,229.214 131.191 C 229.111 131.758,228.830 132.589,228.590 133.038 C 228.349 133.487,228.251 133.855,228.371 133.855 C 228.491 133.855,228.342 134.251,228.040 134.736 C 227.738 135.220,227.378 136.101,227.241 136.693 C 227.103 137.285,226.808 137.769,226.584 137.769 C 226.360 137.769,226.291 137.953,226.429 138.178 C 226.568 138.402,226.447 138.876,226.159 139.229 C 225.699 139.795,225.730 139.836,226.419 139.564 C 226.849 139.394,227.686 139.079,228.277 138.865 C 228.869 138.651,229.256 138.319,229.138 138.127 C 229.019 137.935,229.224 137.894,229.594 138.036 C 230.086 138.224,230.180 138.155,229.945 137.775 C 229.728 137.423,229.775 137.350,230.094 137.547 C 230.352 137.706,230.775 137.675,231.035 137.478 C 231.294 137.281,232.476 136.723,233.659 136.238 C 237.595 134.627,237.965 134.449,237.965 134.163 C 237.965 134.007,238.229 133.981,238.552 134.105 C 238.875 134.229,239.139 134.143,239.139 133.915 C 239.139 133.686,239.799 133.380,240.607 133.234 C 241.414 133.087,242.521 132.742,243.066 132.467 C 243.612 132.191,244.711 131.843,245.509 131.693 C 246.307 131.543,246.879 131.290,246.779 131.129 C 246.680 130.969,247.034 130.920,247.566 131.022 C 248.127 131.129,248.532 131.023,248.532 130.770 C 248.532 130.529,248.664 130.369,248.826 130.414 C 248.987 130.458,250.000 130.203,251.076 129.847 C 252.153 129.491,253.870 129.082,254.892 128.939 C 255.915 128.796,256.764 128.566,256.778 128.429 C 256.841 127.856,257.121 125.724,257.325 124.266 C 257.446 123.405,257.651 121.556,257.780 120.157 C 257.909 118.757,258.171 117.554,258.362 117.482 C 258.552 117.410,258.706 116.794,258.702 116.112 C 258.698 115.162,258.607 115.010,258.312 115.460 C 258.031 115.888,257.983 115.729,258.133 114.873 C 258.247 114.227,258.489 112.859,258.671 111.832 C 258.857 110.779,258.852 109.874,258.659 109.754 C 258.471 109.638,258.349 108.276,258.388 106.728 L 258.458 103.914 258.731 106.654 C 258.900 108.344,258.920 107.820,258.784 105.284 C 258.662 103.023,258.598 100.138,258.640 98.871 C 258.683 97.605,258.557 96.372,258.361 96.132 C 258.046 95.745,257.434 91.578,257.464 90.020 C 257.470 89.697,257.293 88.477,257.071 87.309 C 256.849 86.141,256.625 84.820,256.572 84.374 C 256.370 82.646,255.859 80.798,255.434 80.258 C 255.082 79.809,255.105 79.762,255.547 80.029 C 255.953 80.274,255.926 80.111,255.449 79.430 C 254.691 78.348,254.594 77.716,255.246 78.120 C 255.556 78.311,255.590 78.226,255.355 77.849 C 255.166 77.547,254.997 77.123,254.979 76.908 C 254.962 76.693,254.738 76.023,254.482 75.420 C 254.225 74.817,253.919 73.775,253.801 73.105 C 253.683 72.434,253.489 71.728,253.370 71.535 C 253.251 71.343,253.066 70.631,252.959 69.953 C 252.852 69.276,252.473 68.481,252.116 68.187 C 251.760 67.893,251.688 67.764,251.957 67.900 C 252.226 68.036,252.446 67.956,252.446 67.721 C 252.446 67.486,252.168 67.188,251.828 67.057 C 251.456 66.915,251.285 66.528,251.400 66.091 C 251.504 65.690,251.450 65.362,251.278 65.362 C 250.997 65.362,250.561 64.200,250.255 62.639 C 250.194 62.325,249.973 61.709,249.764 61.269 C 249.556 60.829,249.061 59.634,248.665 58.612 C 248.269 57.590,247.813 56.754,247.652 56.753 C 247.490 56.752,247.358 56.497,247.358 56.187 C 247.358 55.876,246.991 55.000,246.542 54.239 C 245.825 53.024,245.539 52.235,245.431 51.174 C 245.415 51.013,245.137 50.881,244.814 50.881 C 244.491 50.881,244.227 50.694,244.227 50.465 C 244.227 49.449,242.181 45.800,241.750 46.047 C 241.498 46.191,241.422 46.165,241.582 45.989 C 241.741 45.813,241.672 45.428,241.428 45.134 C 241.184 44.840,241.083 44.501,241.204 44.380 C 241.325 44.259,241.042 43.721,240.575 43.184 C 240.108 42.647,239.726 42.060,239.726 41.880 C 239.726 41.700,239.292 40.966,238.761 40.248 C 238.231 39.530,237.811 38.855,237.827 38.748 C 237.844 38.640,237.271 37.866,236.554 37.028 C 235.836 36.189,235.332 35.368,235.435 35.202 C 235.537 35.037,235.003 34.319,234.249 33.607 C 233.494 32.895,232.877 32.168,232.877 31.991 C 232.877 31.813,232.436 31.194,231.898 30.613 C 231.360 30.033,230.920 29.412,230.920 29.234 C 230.920 29.056,230.303 28.329,229.550 27.618 C 228.796 26.908,228.180 26.127,228.180 25.883 C 228.180 25.640,228.004 25.440,227.789 25.440 C 227.573 25.440,227.397 25.240,227.397 24.995 C 227.397 24.751,226.069 23.231,224.446 21.618 C 222.822 20.005,221.233 18.180,220.913 17.562 C 220.266 16.311,219.870 16.068,220.198 17.123 C 220.358 17.637,220.290 17.612,219.927 17.025 C 219.661 16.595,219.202 16.099,218.908 15.923 C 218.613 15.748,217.935 14.911,217.401 14.064 C 216.866 13.217,216.200 12.524,215.920 12.524 C 215.641 12.524,214.681 11.776,213.787 10.861 C 211.057 8.067,208.829 6.034,209.176 6.654 C 209.357 6.977,208.574 6.360,207.436 5.284 C 206.299 4.207,205.507 3.591,205.677 3.914 C 205.847 4.237,205.432 3.897,204.755 3.158 C 204.077 2.420,203.519 1.980,203.514 2.180 C 203.509 2.380,203.141 2.104,202.697 1.566 C 202.253 1.027,202.021 0.851,202.182 1.174 C 202.343 1.497,202.039 1.365,201.506 0.881 C 200.430 -0.097,199.783 -0.180,198.651 0.512 " stroke="none" fill="#841c44" fill-rule="evenodd"></path><path id="path4" d="M194.716 3.376 C 194.012 3.975,193.869 4.213,194.357 3.970 C 195.074 3.614,196.420 2.325,196.036 2.362 C 195.956 2.370,195.362 2.826,194.716 3.376 M184.907 11.840 L 183.757 13.112 185.029 11.962 C 185.729 11.330,186.301 10.757,186.301 10.690 C 186.301 10.388,185.978 10.654,184.907 11.840 M177.862 18.885 L 176.712 20.157 177.984 19.007 C 178.684 18.375,179.256 17.802,179.256 17.735 C 179.256 17.433,178.933 17.699,177.862 18.885 M221.370 18.493 C 221.485 18.762,222.140 19.411,222.825 19.934 L 224.070 20.885 222.722 19.445 C 221.268 17.892,221.044 17.734,221.370 18.493 M254.970 78.474 C 255.131 78.904,255.298 79.471,255.343 79.734 C 255.388 79.997,255.539 80.327,255.679 80.467 C 255.819 80.607,255.843 80.216,255.732 79.598 C 255.621 78.980,255.339 78.297,255.105 78.082 C 254.804 77.805,254.765 77.920,254.970 78.474 M141.280 101.468 C 141.080 103.098,141.188 111.806,141.406 111.671 C 141.711 111.483,141.750 101.370,141.447 101.370 C 141.361 101.370,141.286 101.414,141.280 101.468 M166.439 103.523 C 166.444 104.384,166.524 104.690,166.617 104.203 C 166.711 103.716,166.707 103.012,166.609 102.637 C 166.511 102.263,166.435 102.661,166.439 103.523 M233.409 106.849 C 233.409 108.894,233.475 109.731,233.556 108.708 C 233.636 107.686,233.636 106.013,233.556 104.990 C 233.475 103.968,233.409 104.804,233.409 106.849 M258.578 103.979 C 258.218 104.339,258.247 109.500,258.611 109.724 C 258.772 109.824,258.904 108.513,258.904 106.812 C 258.904 105.110,258.889 103.718,258.871 103.718 C 258.854 103.718,258.721 103.836,258.578 103.979 M166.431 110.372 C 166.431 111.125,166.512 111.433,166.610 111.057 C 166.709 110.680,166.709 110.064,166.610 109.687 C 166.512 109.310,166.431 109.618,166.431 110.372 M258.376 113.569 C 258.343 114.143,258.216 114.936,258.092 115.330 C 257.879 116.008,257.891 116.009,258.313 115.352 C 258.558 114.970,258.686 114.177,258.596 113.591 L 258.434 112.524 258.376 113.569 M141.319 114.710 C 141.334 115.230,141.506 116.008,141.701 116.438 C 141.948 116.984,141.984 116.747,141.818 115.656 C 141.541 113.838,141.279 113.342,141.319 114.710 " stroke="none" fill="#842444" fill-rule="evenodd"></path></g></svg>